<?xml version="1.0" encoding="UTF-8"?>
<svg id="Calque_4" data-name="Calque 4" xmlns="http://www.w3.org/2000/svg" viewBox="0 0 681.88 1059.3">
  <defs>
    <style>
      .cls-1 {
        fill: none;
      }
    </style>
  </defs>
  <path class="cls-1" d="M237.82,109.96v45.6l47.7-2.81,55.42,9.82,51.21,30.87,30.17,32.27,17.54,42.79,2.81,28.76-9.12,23.15-23.85,37.88-43.49,28.06-131.89,58.23-50.51,25.25-35.08,31.57-28.76,48.41-6.31,65.94,14.03,36.48,21.75,25.96,28.06,2.81,19.64-6.31,38.58-8.42,25.96-2.1,26.66-1.4,19.82,6.31,7.54,8.42,7.02,15.43-.7,47-2.81,61.73,9.82,48.41,20.34,45.6,25.25,18.24,36.48,18.24,31.57-2.81,25.96-6.31h30.17l13.33,9.12,7.02,4.91,14.03,16.84,7.72,15.43,4.21,9.82-3.51-100.32-67.35-2.1-29.46-19.64-33.67-47-5.61-25.25-1.4-44.9-2.1-38.59-3.51-19.64-23.85-55.42-28.76-22.45-30.17-11.93-35.78-6.31s-29.46-2.81-31.57-2.81-27.36,0-30.87-.7l-10.52-2.1-21.05-21.75v-20.34l11.93-21.75,16.84-7.72,40.69-24.55,64.54-37.18,69.45-26.66,63.14-39.29,23.15-26.66,11.22-57.53-6.31-46.3-17.54-44.9-17.54-32.97-33.67-32.97-56.82-17.54-70.85-11.93h-46.3Z"/>
</svg>